# xmcd
#
# Track frame offsets:
# 150
# 14095
# 25637
# 38930
# 54152
# 68630
# 81675
# 96387
# 106500
# 119337
# 131642
# 145220
# 162784
# 180137
# 193070
# 208417
# 227620
# 239867
# 252552
# 270307
# 284030
# 300397
# 318480
# 332717
#
# Disc length: 4604 seconds
#
#
# Revision: 0
# Processed by: cddbd v1.5.1PL0 Copyright (c) Steve Scherf et al.
# Submitted via: FreeRIP 2.90 
#
DISCID=5f11fa18
DTITLE=Tonico e Tinoco - Dose Dupla
DYEAR=1995
DGENRE=Country
TTITLE0=Chico Mineiro
TTITLE1=Cana Verde
TTITLE2=Boi de Carro
TTITLE3=Recado
TTITLE4=Eu e a Lua
TTITLE5=Rei do Gado
TTITLE6=Vingança do Chico Mineiro
TTITLE7=Fim do Baile
TTITLE8=Cabocla
TTITLE9=Morenhinha Linda
TTITLE10=Morte da Cabloquinha
TTITLE11=Besta Ruana
TTITLE12=Tristeza do Jeca
TTITLE13=Adeus, Morena, Adeus
TTITLE14=Pé de Ipê
TTITLE15=Chitãozinho e Chororó
TTITLE16=Saudade de Matão
TTITLE17=Rio Pequeno
TTITLE18=Piracicaba
TTITLE19=Hino Sertanejo
TTITLE20=Luar do Sertão
TTITLE21=Cabocla Tereza
TTITLE22=Bom Jesus de Pirapora
TTITLE23=Sereno da Madrugada
EXTD=
EXTT0=
EXTT1=
EXTT2=
EXTT3=
EXTT4=
EXTT5=
EXTT6=
EXTT7=
EXTT8=
EXTT9=
EXTT10=
EXTT11=
EXTT12=
EXTT13=
EXTT14=
EXTT15=
EXTT16=
EXTT17=
EXTT18=
EXTT19=
EXTT20=
EXTT21=
EXTT22=
EXTT23=
PLAYORDER=
